<svg xmlns="http://www.w3.org/2000/svg" viewBox="0 0 512 512" role="img" aria-label="Qwixx">
  <rect width="512" height="512" rx="96" fill="#ffffff"/>
  <rect x="58" y="58" width="396" height="396" rx="82" fill="#f5f5f4" stroke="#18181b" stroke-width="10"/>
  <rect x="98" y="112" width="72" height="72" rx="18" fill="#ef4444"/>
  <rect x="186" y="112" width="72" height="72" rx="18" fill="#facc15"/>
  <rect x="274" y="112" width="72" height="72" rx="18" fill="#22c55e"/>
  <rect x="362" y="112" width="72" height="72" rx="18" fill="#3b82f6"/>
  <rect x="98" y="216" width="72" height="72" rx="18" fill="#ffffff" stroke="#18181b" stroke-width="8"/>
  <rect x="186" y="216" width="72" height="72" rx="18" fill="#ef4444"/>
  <rect x="274" y="216" width="72" height="72" rx="18" fill="#facc15"/>
  <rect x="362" y="216" width="72" height="72" rx="18" fill="#ffffff" stroke="#18181b" stroke-width="8"/>
  <circle cx="126" cy="244" r="8" fill="#18181b"/>
  <circle cx="142" cy="260" r="8" fill="#18181b"/>
  <circle cx="386" cy="240" r="8" fill="#18181b"/>
  <circle cx="410" cy="264" r="8" fill="#18181b"/>
  <circle cx="210" cy="240" r="8" fill="#ffffff"/>
  <circle cx="234" cy="264" r="8" fill="#ffffff"/>
  <circle cx="298" cy="240" r="8" fill="#ffffff"/>
  <circle cx="322" cy="264" r="8" fill="#ffffff"/>
  <path d="M124 362h264" stroke="#18181b" stroke-width="24" stroke-linecap="round"/>
  <path d="M142 332l52 60M194 332l-52 60" stroke="#18181b" stroke-width="18" stroke-linecap="round"/>
  <path d="M230 332l52 60M282 332l-52 60" stroke="#18181b" stroke-width="18" stroke-linecap="round"/>
  <path d="M318 332l52 60M370 332l-52 60" stroke="#18181b" stroke-width="18" stroke-linecap="round"/>
</svg>

